<?xml version="1.0" encoding="UTF-8" standalone="no"?>
<svg
   xmlns:osb="http://www.openswatchbook.org/uri/2009/osb"
   xmlns:dc="http://purl.org/dc/elements/1.1/"
   xmlns:cc="http://creativecommons.org/ns#"
   xmlns:rdf="http://www.w3.org/1999/02/22-rdf-syntax-ns#"
   xmlns:svg="http://www.w3.org/2000/svg"
   xmlns="http://www.w3.org/2000/svg"
   xmlns:xlink="http://www.w3.org/1999/xlink"
   xmlns:sodipodi="http://sodipodi.sourceforge.net/DTD/sodipodi-0.dtd"
   xmlns:inkscape="http://www.inkscape.org/namespaces/inkscape"
   height="1000"
   width="1000"
   id="svg3336"
   version="1.1"
   inkscape:version="0.91 r13725"
   sodipodi:docname="github.svg">
  <metadata
     id="metadata3344">
    <rdf:RDF>
      <cc:Work
         rdf:about="">
        <dc:format>image/svg+xml</dc:format>
        <dc:type
           rdf:resource="http://purl.org/dc/dcmitype/StillImage" />
        <dc:title></dc:title>
      </cc:Work>
    </rdf:RDF>
  </metadata>
  <defs
     id="defs3342">
    <linearGradient
       id="linearGradient4188"
       osb:paint="solid">
      <stop
         style="stop-color:#ee4b28;stop-opacity:1;"
         offset="0"
         id="stop4190" />
    </linearGradient>
    <linearGradient
       id="linearGradient4180"
       osb:paint="solid">
      <stop
         style="stop-color:#ee4b28;stop-opacity:1;"
         offset="0"
         id="stop4182" />
    </linearGradient>
    <linearGradient
       inkscape:collect="always"
       xlink:href="#linearGradient4180"
       id="linearGradient4184"
       x1="194.20915"
       y1="524.53326"
       x2="762.6951"
       y2="524.53326"
       gradientUnits="userSpaceOnUse" />
    <linearGradient
       inkscape:collect="always"
       xlink:href="#linearGradient4188"
       id="linearGradient4192"
       x1="1.2107909"
       y1="499.8549"
       x2="999.19693"
       y2="499.8549"
       gradientUnits="userSpaceOnUse" />
  </defs>
  <sodipodi:namedview
     pagecolor="#ffffff"
     bordercolor="#666666"
     borderopacity="1"
     objecttolerance="10"
     gridtolerance="10"
     guidetolerance="10"
     inkscape:pageopacity="0"
     inkscape:pageshadow="2"
     inkscape:window-width="1440"
     inkscape:window-height="837"
     id="namedview3340"
     showgrid="false"
     inkscape:zoom="0.848"
     inkscape:cx="326.06132"
     inkscape:cy="452.83019"
     inkscape:window-x="1912"
     inkscape:window-y="172"
     inkscape:window-maximized="1"
     inkscape:current-layer="svg3336" />
  <path
     d="M0 499.968q0 -207.018 146.475 -353.493t353.493 -146.475 353.493 146.475 146.475 353.493 -146.475 353.493 -353.493 146.475 -353.493 -146.475 -146.475 -353.493zm54.684 0q0 183.582 130.851 314.433t314.433 130.851 314.433 -130.851 130.851 -314.433 -130.851 -314.433 -314.433 -130.851 -314.433 130.851 -130.851 314.433zm140.616 107.415q-3.906 -3.906 0 -7.812 7.812 -7.812 19.53 -5.859t13.671 3.906q13.671 5.859 30.271 26.366t26.366 28.319q46.872 39.06 95.697 5.859 3.906 -13.671 12.694 -23.436t16.601 -13.671 27.342 -11.718q-64.449 -5.859 -104.486 -22.46t-63.473 -41.989q-31.248 -35.154 -38.084 -91.791t8.789 -103.509q11.718 -29.295 33.201 -52.731 -15.624 -48.825 5.859 -111.321 62.496 3.906 113.274 42.966 97.65 -25.389 203.112 -1.953 13.671 -9.765 41.989 -24.413t71.285 -16.601q7.812 21.483 10.742 50.778t-2.929 54.684q44.919 46.872 46.872 124.992 0 62.496 -21.483 103.509t-76.167 68.355q-37.107 17.577 -97.65 21.483 27.342 13.671 40.037 28.319t16.601 45.895l0 61.52t1.953 59.567q5.859 9.765 13.671 16.601t13.671 9.765 3.906 8.789 -15.624 5.859q-33.201 0 -52.731 -23.436 -5.859 -9.765 -5.859 -23.436l0 -93.744q0 -15.624 -7.812 -22.46t-15.624 -8.789l0 123.039q0 33.201 7.812 42.966t9.765 19.53q1.953 1.953 -2.929 2.929t-16.601 -2.929q-25.389 -5.859 -35.154 -26.366t-9.765 -43.943l0 -121.086l-25.389 0l0 121.086q0 23.436 -9.765 44.919 -13.671 27.342 -50.778 29.295 -5.859 -1.953 -5.859 -3.906 1.953 -1.953 11.718 -19.53 1.953 -3.906 4.883 -15.624t2.929 -27.342l0 -123.039q-7.812 1.953 -14.648 8.789t-6.836 22.46l0 93.744q0 13.671 -5.859 23.436 -17.577 23.436 -52.731 23.436 -13.671 0 -15.624 -5.859 -1.953 -3.906 .977 -6.836t8.789 -6.836 7.812 -5.859q7.812 -5.859 11.718 -15.624 5.859 -7.812 2.929 -41.013t-.977 -42.966q-50.778 17.577 -103.509 -17.577 -15.624 -15.624 -31.248 -44.919 -11.718 -21.483 -46.872 -50.778z"
     id="path3338" />
  <path
     style="opacity:1;fill:#ee4b28;fill-opacity:0"
     d="m 424.67149,861.2175 c -1.9244,-1.40716 -1.62006,-2.29233 4.1558,-12.08726 3.67805,-6.23739 7.43402,-14.67695 9.16454,-20.5925 l 2.93229,-10.02359 0.40995,-72.8586 0.40996,-72.85859 -4.15966,1.73802 c -6.5659,2.7434 -12.29314,7.91381 -15.14505,13.67257 -2.58563,5.22106 -2.6375,6.25713 -3.21762,64.26887 -0.57642,57.64106 -0.6478,59.08825 -3.18592,64.58471 -7.79869,16.88858 -31.8517,28.83217 -55.95098,27.78263 -15.7289,-0.68501 -18.42563,-6.92475 -6.90084,-15.96734 13.62424,-10.68985 17.38401,-14.53054 21.30615,-21.76464 l 4.04763,-7.46555 -0.46658,-24.76415 c -0.25662,-13.62029 -0.52195,-31.52373 -0.58963,-39.78543 -0.1046,-12.77079 -0.38805,-14.93999 -1.89191,-14.47867 -12.91374,3.96132 -18.11447,4.67329 -33.60849,4.6009 -20.08584,-0.0938 -30.43755,-2.73092 -51.29717,-13.06784 -19.66098,-9.74294 -27.87007,-19.01316 -48.74191,-55.04244 -7.37949,-12.73859 -19.66698,-26.85998 -35.44437,-40.73443 -9.39856,-8.26498 -12.53517,-11.72033 -12.27359,-13.5208 0.44376,-3.05438 6.97062,-7.50312 12.54126,-8.54818 5.68845,-1.06716 17.10079,1.39036 24.36673,5.24711 6.73797,3.57651 21.15817,17.58608 36.57832,35.53672 13.1679,15.32879 22.88263,23.35291 36.53488,30.17686 22.93913,11.46594 41.83333,11.4314 65.23448,-0.11926 10.29334,-5.08074 11.13538,-5.77311 13.29768,-10.934 4.25604,-10.15821 6.33852,-13.50701 12.74162,-20.48955 7.44674,-8.12065 12.39602,-11.2117 30.06668,-18.77801 14.21538,-6.08681 14.21202,-6.14077 -0.46782,-7.49644 -11.64403,-1.07532 -35.58034,-5.05123 -50.4576,-8.38119 -28.08275,-6.28574 -56.60652,-17.99142 -77.57282,-31.83459 -13.01489,-8.59317 -31.49598,-26.63608 -38.54773,-37.63378 -21.27034,-33.17254 -31.16824,-77.78022 -27.93939,-125.91665 2.79046,-41.60074 13.99572,-71.3389 37.54076,-99.63112 l 5.73335,-6.88933 -2.20578,-8.68576 c -6.76444,-26.63659 -5.27944,-57.10254 4.41871,-90.65382 1.62231,-5.61245 3.31987,-10.5809 3.77237,-11.041 1.16654,-1.18613 24.53993,2.04939 36.62256,5.06958 21.93865,5.4838 43.43652,15.16454 63.61898,28.64836 l 12.58735,8.40955 14.00495,-3.17323 c 56.13948,-12.72 122.71363,-12.81026 180.78277,-0.24509 l 8.46697,1.8321 6.86322,-4.62094 c 8.92977,-6.01232 28.96444,-17.18026 39.80898,-22.19075 15.67182,-7.24083 39.20301,-12.76327 58.37921,-13.70079 l 7.59855,-0.37149 2.78801,8.84434 c 7.2997,23.15652 10.49096,62.14962 6.88306,84.10182 l -1.90291,11.57824 6.96204,8.46893 c 28.91732,35.17632 41.84044,79.81206 38.9839,134.64818 -2.11863,40.67049 -11.94182,73.68211 -29.47066,99.03848 -12.91534,18.68269 -40.23914,40.8915 -65.38394,53.14409 -21.04601,10.25534 -50.63565,17.86084 -80.31257,20.64295 -21.71002,2.03522 -21.15756,1.52812 -9.15864,8.40664 27.69696,15.87757 38.86175,29.88686 44.11731,55.3573 1.95252,9.46268 2.29366,16.30916 2.3723,47.60865 0.0505,20.10613 0.50037,47.76117 0.9997,61.45563 0.81704,22.40769 1.15862,25.30473 3.41382,28.95371 3.46984,5.61431 16.22425,17.60495 22.81526,21.44901 5.77005,3.36526 7.14315,5.74748 5.64586,9.79506 -2.92124,7.89686 -31.91934,6.21403 -48.571,-2.81868 -9.07684,-4.92374 -17.83876,-13.51024 -21.06048,-20.63884 -2.80759,-6.21223 -2.80898,-6.23851 -3.41467,-64.5874 -0.33327,-32.10495 -1.07507,-59.43396 -1.64845,-60.73113 -3.05787,-6.91794 -12.8462,-15.36378 -20.44608,-17.6419 l -2.6533,-0.79534 9.9e-4,64.05353 c 0.001,83.8082 0.67931,90.76123 10.37601,106.40312 5.30854,8.56327 7.31168,12.96822 7.31168,16.07853 0,3.13254 -5.9175,3.07405 -17.61346,-0.1741 -23.20518,-6.44443 -34.61893,-18.10071 -42.07238,-42.96636 -1.88769,-6.2976 -2.17585,-14.43093 -2.75594,-77.78767 l -0.64785,-70.75472 -13.21403,-0.33293 -13.21403,-0.33295 -0.38101,69.90842 c -0.3693,67.76083 -0.46042,70.19083 -2.9662,79.10171 -7.54898,26.84529 -20.5616,40.06638 -44.25058,44.95947 -10.92016,2.25562 -12.78148,2.29693 -15.4536,0.34303 z"
     id="path4176"
     inkscape:connector-curvature="0" />
  <path
     style="opacity:1;fill:url(#linearGradient4184);fill-opacity:1"
     d="m 424.67149,861.2175 c -1.9244,-1.40716 -1.62006,-2.29233 4.1558,-12.08726 3.67805,-6.23739 7.43402,-14.67695 9.16454,-20.5925 l 2.93229,-10.02359 0.40995,-72.8586 0.40996,-72.85859 -4.15966,1.73802 c -6.5659,2.7434 -12.29314,7.91381 -15.14505,13.67257 -2.58563,5.22106 -2.6375,6.25713 -3.21762,64.26887 -0.57642,57.64106 -0.6478,59.08825 -3.18592,64.58471 -7.79869,16.88858 -31.8517,28.83217 -55.95098,27.78263 -15.7289,-0.68501 -18.42563,-6.92475 -6.90084,-15.96734 13.62424,-10.68985 17.38401,-14.53054 21.30615,-21.76464 l 4.04763,-7.46555 -0.46658,-24.76415 c -0.25662,-13.62029 -0.52195,-31.52373 -0.58963,-39.78543 -0.1046,-12.77079 -0.38805,-14.93999 -1.89191,-14.47867 -12.91374,3.96132 -18.11447,4.67329 -33.60849,4.6009 -20.08584,-0.0938 -30.43755,-2.73092 -51.29717,-13.06784 -19.66098,-9.74294 -27.87007,-19.01316 -48.74191,-55.04244 -7.37949,-12.73859 -19.66698,-26.85998 -35.44437,-40.73443 -9.39856,-8.26498 -12.53517,-11.72033 -12.27359,-13.5208 0.44376,-3.05438 6.97062,-7.50312 12.54126,-8.54818 5.68845,-1.06716 17.10079,1.39036 24.36673,5.24711 6.73797,3.57651 21.15817,17.58608 36.57832,35.53672 13.1679,15.32879 22.88263,23.35291 36.53488,30.17686 22.93913,11.46594 41.83333,11.4314 65.23448,-0.11926 10.29334,-5.08074 11.13538,-5.77311 13.29768,-10.934 4.25604,-10.15821 6.33852,-13.50701 12.74162,-20.48955 7.44674,-8.12065 12.39602,-11.2117 30.06668,-18.77801 14.21538,-6.08681 14.21202,-6.14077 -0.46782,-7.49644 -11.64403,-1.07532 -35.58034,-5.05123 -50.4576,-8.38119 -28.08275,-6.28574 -56.60652,-17.99142 -77.57282,-31.83459 -13.01489,-8.59317 -31.49598,-26.63608 -38.54773,-37.63378 -21.27034,-33.17254 -31.16824,-77.78022 -27.93939,-125.91665 2.79046,-41.60074 13.99572,-71.3389 37.54076,-99.63112 l 5.73335,-6.88933 -2.20578,-8.68576 c -6.76444,-26.63659 -5.27944,-57.10254 4.41871,-90.65382 1.62231,-5.61245 3.31987,-10.5809 3.77237,-11.041 1.16654,-1.18613 24.53993,2.04939 36.62256,5.06958 21.93865,5.4838 43.43652,15.16454 63.61898,28.64836 l 12.58735,8.40955 14.00495,-3.17323 c 56.13948,-12.72 122.71363,-12.81026 180.78277,-0.24509 l 8.46697,1.8321 6.86322,-4.62094 c 8.92977,-6.01232 28.96444,-17.18026 39.80898,-22.19075 15.67182,-7.24083 39.20301,-12.76327 58.37921,-13.70079 l 7.59855,-0.37149 2.78801,8.84434 c 7.2997,23.15652 10.49096,62.14962 6.88306,84.10182 l -1.90291,11.57824 6.96204,8.46893 c 28.91732,35.17632 41.84044,79.81206 38.9839,134.64818 -2.11863,40.67049 -11.94182,73.68211 -29.47066,99.03848 -12.91534,18.68269 -40.23914,40.8915 -65.38394,53.14409 -21.04601,10.25534 -50.63565,17.86084 -80.31257,20.64295 -21.71002,2.03522 -21.15756,1.52812 -9.15864,8.40664 27.69696,15.87757 38.86175,29.88686 44.11731,55.3573 1.95252,9.46268 2.29366,16.30916 2.3723,47.60865 0.0505,20.10613 0.50037,47.76117 0.9997,61.45563 0.81704,22.40769 1.15862,25.30473 3.41382,28.95371 3.46984,5.61431 16.22425,17.60495 22.81526,21.44901 5.77005,3.36526 7.14315,5.74748 5.64586,9.79506 -2.92124,7.89686 -31.91934,6.21403 -48.571,-2.81868 -9.07684,-4.92374 -17.83876,-13.51024 -21.06048,-20.63884 -2.80759,-6.21223 -2.80898,-6.23851 -3.41467,-64.5874 -0.33327,-32.10495 -1.07507,-59.43396 -1.64845,-60.73113 -3.05787,-6.91794 -12.8462,-15.36378 -20.44608,-17.6419 l -2.6533,-0.79534 9.9e-4,64.05353 c 0.001,83.8082 0.67931,90.76123 10.37601,106.40312 5.30854,8.56327 7.31168,12.96822 7.31168,16.07853 0,3.13254 -5.9175,3.07405 -17.61346,-0.1741 -23.20518,-6.44443 -34.61893,-18.10071 -42.07238,-42.96636 -1.88769,-6.2976 -2.17585,-14.43093 -2.75594,-77.78767 l -0.64785,-70.75472 -13.21403,-0.33293 -13.21403,-0.33295 -0.38101,69.90842 c -0.3693,67.76083 -0.46042,70.19083 -2.9662,79.10171 -7.54898,26.84529 -20.5616,40.06638 -44.25058,44.95947 -10.92016,2.25562 -12.78148,2.29693 -15.4536,0.34303 z"
     id="path4178"
     inkscape:connector-curvature="0" />
  <path
     style="opacity:1;fill:url(#linearGradient4192);fill-opacity:1"
     d="M 464.03302,998.3393 C 342.16746,989.88121 238.68191,943.01712 150.56538,856.38351 64.097841,771.37112 16.608796,674.5288 3.3296137,556.13208 0.80473656,533.62035 0.44991675,469.75857 2.7333857,448.82075 9.5510779,386.30725 23.347614,335.95217 47.281254,286.22837 73.418926,231.92554 105.87426,187.44782 152.83209,141.57847 194.66586,100.7144 234.55243,72.391283 283.9262,48.489644 350.41541,16.302492 420.91934,0.71327335 500,0.71327335 c 121.85045,0 227.80111,38.12472465 318.94925,114.76900665 14.58411,12.26344 44.48521,41.70232 58.2962,57.39508 55.61023,63.18716 91.36963,132.31006 109.76046,212.16693 12.91718,56.08908 15.75319,125.43855 7.62789,186.52558 -14.00933,105.32382 -59.37402,196.86951 -137.0702,276.60683 -84.35314,86.56916 -184.77915,135.98976 -301.54945,148.39534 -20.67371,2.19636 -71.67897,3.17633 -91.98113,1.76726 z m 77.24056,-54.30051 c 75.29983,-6.49134 142.93502,-30.28011 204.59906,-71.96197 39.4615,-26.67403 82.87353,-68.0241 112.56487,-107.21833 53.98835,-71.26764 82.85053,-152.32711 86.5885,-243.18396 C 950.24103,394.91606 911.41348,288.65439 826.53142,197.38328 757.77185,123.44821 673.94233,76.968222 580.38489,60.90527 529.84022,52.227215 470.36012,52.222621 419.52159,60.892848 331.22746,75.950919 251.53028,118.42791 183.96226,186.44125 116.26526,254.58443 75.298482,333.04874 60.209456,423.46698 c -5.964169,35.73921 -7.511661,88.58651 -3.660289,125 8.640595,81.69406 36.40061,152.27013 85.280713,216.81466 12.73836,16.82055 20.99385,26.25841 39.71909,45.40768 61.28954,62.6774 130.00676,102.92287 208.55944,122.14659 23.29839,5.70167 41.2172,8.57506 72.74536,11.66514 9.9476,0.97496 65.54991,0.6472 78.41981,-0.46226 z"
     id="path4186"
     inkscape:connector-curvature="0" />
</svg>
